<svg width="234" height="67" viewBox="0 0 234 67" fill="none" xmlns="http://www.w3.org/2000/svg">
    <g clip-path="url(#clip0_292_2407)">
        <path d="M29.2398 38.6977C29.0233 40.7848 28.2516 42.606 26.925 44.1747C25.5984 45.7433 23.8792 46.9664 21.781 47.8304C19.6692 48.6945 17.3138 49.1332 14.6876 49.1332C11.7907 49.1332 9.24575 48.6148 7.03922 47.5912C4.8327 46.5675 3.1135 45.1318 1.8681 43.284C0.6227 41.4362 0 39.3092 0 36.9031C0 34.4703 0.6227 32.33 1.85456 30.4822C3.08643 28.6344 4.81916 27.1987 7.02569 26.1618C9.23221 25.1249 11.7772 24.5931 14.6741 24.5931C17.2867 24.5931 19.6557 25.0318 21.7674 25.9092C23.8792 26.7866 25.5984 28.0096 26.9115 29.565C28.2381 31.1203 29.0097 32.9548 29.2263 35.0685H20.8334C20.5356 33.686 19.8317 32.6225 18.7216 31.8781C17.6251 31.1336 16.2714 30.7614 14.6741 30.7614C13.4287 30.7614 12.3457 31.0007 11.4252 31.466C10.5047 31.9445 9.78723 32.6358 9.27282 33.5398C8.75842 34.4437 8.51475 35.5604 8.51475 36.8898C8.51475 38.1925 8.77195 39.2959 9.27282 40.1999C9.78723 41.1039 10.5047 41.7951 11.4252 42.2737C12.3457 42.7523 13.4287 42.9783 14.6741 42.9783C16.2714 42.9783 17.6251 42.5927 18.7487 41.7951C19.8723 41.0108 20.5627 39.9739 20.8334 38.6711H29.2398V38.6977Z" fill="white"/>
        <path d="M60.4556 25.2977V48.4819H51.9815V27.6906L55.8666 31.466H37.172L41.0571 27.6906V48.4819H32.583V25.2977H60.4556Z" fill="white"/>
        <path d="M97.832 25.2977H106.306V31.9578L105.941 32.9283V39.4289L106.306 41.3431V55.1951H97.832V25.2977ZM103.626 36.9031C103.978 34.3906 104.736 32.2104 105.873 30.3892C107.01 28.5546 108.472 27.1455 110.232 26.1219C111.992 25.0983 113.995 24.5931 116.229 24.5931C118.544 24.5931 120.574 25.1116 122.334 26.1352C124.08 27.1588 125.447 28.5945 126.422 30.4423C127.397 32.2769 127.884 34.4304 127.884 36.9031C127.884 39.3092 127.397 41.4495 126.422 43.2973C125.447 45.1451 124.08 46.5808 122.334 47.6045C120.588 48.6148 118.557 49.1332 116.229 49.1332C113.995 49.1332 111.992 48.6281 110.232 47.6045C108.472 46.5808 107.024 45.1584 105.887 43.3239C104.763 41.4761 104.005 39.3358 103.626 36.9031ZM119.383 36.9031C119.383 35.7332 119.139 34.7096 118.665 33.8189C118.178 32.9283 117.501 32.2237 116.635 31.7052C115.769 31.1868 114.78 30.9342 113.684 30.9342C112.547 30.9342 111.477 31.1868 110.462 31.7052C109.447 32.2237 108.54 32.9283 107.768 33.8189C106.997 34.7096 106.401 35.7465 105.995 36.9031C106.414 38.0463 106.997 39.0566 107.768 39.9473C108.54 40.838 109.433 41.5425 110.462 42.0344C111.477 42.5396 112.56 42.7921 113.684 42.7921C114.78 42.7921 115.769 42.5396 116.635 42.0344C117.501 41.5293 118.178 40.838 118.665 39.9473C119.139 39.0566 119.383 38.0463 119.383 36.9031Z" fill="white"/>
        <path d="M131.539 48.4819V25.2977H139.891V43.9753L138.077 43.4037L150.437 25.2977H161.266V48.4819H152.955V29.2725L154.769 29.884L142.071 48.4819H131.539Z" fill="white"/>
        <path d="M165.937 48.4819V25.2977H178.634L185.958 43.9753H183.602L190.804 25.2977H203.502V48.4819H195.61V28.4217H196.977L188.624 48.4819H180.895L172.543 28.5015L173.91 28.4217V48.4819H165.937Z" fill="white"/>
        <path d="M215.969 36.8632C215.969 35.6136 216.321 34.5103 217.038 33.5531C217.756 32.596 218.92 31.7452 220.558 31.014L223.78 29.5916C224.47 29.2726 224.998 28.9003 225.35 28.4749C225.702 28.0495 225.892 27.5843 225.892 27.0791C225.892 26.0555 225.431 25.2446 224.524 24.6597C223.617 24.0747 222.304 23.7823 220.599 23.7823C218.839 23.7823 217.431 24.1545 216.402 24.8989C215.373 25.6434 214.751 26.667 214.561 27.9698H206.493C206.71 24.6464 208.077 22.0408 210.568 20.1664C213.059 18.292 216.402 17.3615 220.599 17.3615C224.822 17.3615 228.098 18.1857 230.467 19.8208C232.823 21.4559 234 23.769 234 26.7468C234 28.2091 233.581 29.5251 232.755 30.6817C231.929 31.8515 230.67 32.8087 228.992 33.5664L225.472 35.1882C224.836 35.4807 224.362 35.8263 224.024 36.1986C223.699 36.5841 223.523 37.0493 223.523 37.621V38.2724H216.159C216.077 38.0065 216.023 37.7539 215.996 37.5146C215.983 37.3019 215.969 37.0759 215.969 36.8632ZM219.773 48.8807C218.365 48.8807 217.228 48.4819 216.362 47.6976C215.495 46.9132 215.062 45.8896 215.062 44.6134C215.062 43.3107 215.495 42.2737 216.362 41.4894C217.228 40.7051 218.365 40.3063 219.773 40.3063C221.181 40.3063 222.304 40.6918 223.157 41.4894C224.01 42.287 224.443 43.3107 224.443 44.6134C224.443 45.8896 224.01 46.9132 223.157 47.6976C222.318 48.4952 221.181 48.8807 219.773 48.8807Z" fill="white"/>
        <path d="M74.3312 30.6552L84.3621 0L84.7005 29.2992L107.673 19.6879L90.8734 41.2901L114.55 60.8716L77.1063 48.4819L52.5096 67L67.5357 41.8085L45.5381 38.2857L66.2767 33.6063L60.4558 7.1254L74.3312 30.6552Z" fill="#FF7F7F"/>
    </g>
</svg>
