<svg class="login-icon" width="34" height="42" viewBox="0 0 34 42" fill="white" xmlns="http://www.w3.org/2000/svg" style="transform: scale(0.7);">
    <path d="M12.75 18.9H0V2.1C0 1.54305 0.223884 1.0089 0.622398 0.615076C1.02091 0.221249 1.56141 0 2.125 0H31.875C32.4386 0 32.9791 0.221249 33.3776 0.615076C33.7761 1.0089 34 1.54305 34 2.1V39.9C34 40.457 33.7761 40.9911 33.3776 41.3849C32.9791 41.7788 32.4386 42 31.875 42H2.125C1.56141 42 1.02091 41.7788 0.622398 41.3849C0.223884 40.9911 0 40.457 0 39.9V23.1H12.75V29.4L23.375 21L12.75 12.6V18.9Z" fill="white"/>
</svg>
