<svg width="266" height="335" viewBox="0 0 266 335" fill="none" xmlns="http://www.w3.org/2000/svg">
<path d="M175.896 247.82C175.896 247.82 277.097 284.573 243.689 334.114" stroke="white" stroke-miterlimit="10" stroke-linecap="round" stroke-linejoin="round"/>
<path d="M201.647 247.133L175.896 247.82L190.577 263.954" stroke="white" stroke-miterlimit="10" stroke-linecap="round" stroke-linejoin="round"/>
<g clip-path="url(#clip0_292_561)">
<path d="M113.579 74.3654C112.033 76.0388 110.546 79.2076 109.821 80.8573C111.153 84.8687 113.865 93.4375 114.733 98.5408C114.769 98.79 114.602 99.0155 114.364 99.0511C114.341 99.0629 114.317 99.0629 114.293 99.0629C114.079 99.0629 113.889 98.9087 113.853 98.695C112.794 92.4168 108.881 80.8098 108.31 79.1483C108.286 79.0771 108.263 79.0296 108.251 78.994C101.84 64.2657 91.1941 61.6903 88.3989 61.2631C86.3888 62.711 84.0456 63.9215 81.9522 64.8472C81.9403 64.871 81.9403 64.871 81.9284 64.871C81.9046 64.8828 81.8808 64.9066 81.857 64.9184C81.7975 64.954 81.7381 64.9659 81.6905 64.9659C80.4654 65.5237 79.3473 65.9747 78.4314 66.3307C80.7865 66.5325 84.0813 67.1852 84.7949 69.2384C85.1756 70.3065 84.8306 70.8169 84.4857 71.0661C84.2597 71.2204 83.9623 71.2916 83.6174 71.2916C82.0117 71.2916 79.2997 69.7606 76.8614 67.8973L81.072 82.3527C81.1434 82.59 81.0006 82.8393 80.7627 82.9105C80.5367 82.9817 80.287 82.8393 80.2156 82.6019L76.1239 68.5619L72.8768 84.8212C72.8292 85.0349 72.6389 85.1891 72.4367 85.1891C72.401 85.1891 72.3772 85.1773 72.3415 85.1773C72.1036 85.1298 71.949 84.8924 71.9966 84.6551L75.2437 68.4551C73.5904 70.4608 70.6168 73.6771 68.4996 73.6771C68.4283 73.6771 68.3569 73.6652 68.2855 73.6652C67.7741 73.6059 67.0842 73.321 66.6441 72.3123C66.2754 71.4578 66.2992 70.6626 66.7393 69.9149C67.8692 67.9685 71.6635 66.9716 74.0305 66.5325C63.4326 63.1026 56.2009 56.86 55.9511 52.8367C55.7132 48.9677 58.3062 47.1519 60.1855 46.3567C59.7097 45.4429 59.4956 44.5884 59.4123 44.0306C51.2528 43.8882 44.1162 48.4693 42.1774 52.813C38.6685 60.6459 42.0465 64.7879 44.2946 66.5088H44.3065C44.3897 66.5088 44.4849 66.5444 44.5563 66.5918C44.6157 66.6393 50.8127 70.8406 61.482 68.8349C61.7198 68.7874 61.9577 68.9536 62.0053 69.1909C62.0529 69.4283 61.8864 69.6657 61.6485 69.7131C59.4956 70.1167 57.5211 70.2709 55.7489 70.2709C50.4202 70.2709 46.7805 68.8112 45.1034 67.9448C41.1664 69.9861 24.2407 79.5399 21.4931 94.2208C18.686 109.222 26.6433 116.272 33.3518 119.5C45.1748 124.401 56.2841 121.945 58.0564 121.506L62.0053 104.878C60.6731 105.009 59.4242 105.068 58.2348 105.068C54.381 105.068 51.2409 104.463 48.6836 103.513C48.6598 103.513 48.636 103.513 48.6003 103.502C48.529 103.49 48.4695 103.466 48.41 103.419C48.3981 103.419 48.3981 103.407 48.3862 103.407C39.0492 99.7988 37.6099 91.5148 37.5862 91.408C37.5505 91.1588 37.717 90.9333 37.9549 90.8977C38.2047 90.8621 38.4307 91.0282 38.4663 91.2656C38.5377 91.7047 39.8461 99.0867 48.3268 102.481L51.6096 82.6612C51.6453 82.412 51.8832 82.2459 52.1211 82.2933C52.359 82.3289 52.5255 82.5544 52.4898 82.8037L49.1832 102.801C52.4422 103.953 56.7004 104.522 62.2194 103.964L63.6943 97.7337C63.7419 97.532 63.9084 97.3777 64.1463 97.3895L87.0906 98.2203C87.2809 98.2322 87.4474 98.3509 87.5069 98.5289L95.3334 122.135C95.3928 122.313 95.3452 122.491 95.2025 122.609C95.0955 122.716 87.2095 129.505 75.3508 129.505C70.1292 129.505 64.1344 128.187 57.6995 124.401C57.533 124.295 57.4498 124.105 57.4854 123.915L57.8304 122.479C56.4625 122.775 53.2154 123.393 48.9334 123.393C46.7567 123.393 44.3065 123.238 41.6897 122.787C42.2844 125.256 44.2827 130.3 49.766 134.382L20.0419 268.967C20.0182 269.097 20.0419 269.228 20.1252 269.335L20.1371 269.346C20.2204 269.441 20.3393 269.501 20.4701 269.501L56.6528 270.13L66.6798 270.308L101.792 270.925C101.899 270.925 101.994 270.889 102.077 270.806C102.089 270.806 102.101 270.794 102.113 270.782C102.196 270.699 102.244 270.581 102.244 270.45L94.1082 135.7V135.688C103.243 130.502 105.741 122.597 106.395 119.452C104.992 102.837 93.9774 82.412 93.8585 82.1984C93.7395 81.9848 93.8228 81.7118 94.0369 81.5931C94.251 81.4744 94.5245 81.5575 94.6435 81.7711C94.7624 81.9729 105.372 101.638 107.18 118.23C114.364 119.868 119.003 117.874 121.965 114.076L122.274 80.3232C117.588 79.0652 114.697 75.8371 113.579 74.3654ZM21.0292 268.622L25.3944 248.838L43.6523 252.517L65.2168 256.885L64.634 260.837C64.6102 260.884 64.6102 260.932 64.6102 260.991L63.3613 269.358L21.0292 268.622ZM101.316 270.023L64.2533 269.382L65.4428 261.395L89.5051 258.368L100.531 256.992L101.316 270.023ZM100.472 256.102L89.9571 257.419V163.008C89.9571 162.771 89.7549 162.569 89.5051 162.569C89.2553 162.569 89.065 162.771 89.065 163.008V257.538L65.5736 260.481L66.1446 256.648C66.1564 256.636 66.1564 256.636 66.1564 256.624V256.612C66.1683 256.576 66.1683 256.541 66.1683 256.517L82.202 148.707L87.376 143.96C87.5663 143.794 87.5782 143.521 87.4117 143.331C87.2452 143.153 86.9597 143.141 86.7813 143.307L81.4764 148.149C81.405 148.221 81.3575 148.316 81.3456 148.411L65.3476 255.995L44.2946 251.746L67.6551 157.395C67.7146 157.157 67.56 156.908 67.3221 156.849C67.0842 156.801 66.8463 156.944 66.7868 157.181L43.4263 251.568L25.5847 247.972L50.551 134.952C55.7727 138.536 63.8727 141.218 76.3737 140.447C83.5698 139.996 89.0531 138.358 93.2399 136.163L100.472 256.102Z" fill="#FF7F7F"/>
<path d="M87.6615 60.6935C85.8297 61.9634 83.7244 63.0672 81.7975 63.9454C80.6676 61.7735 80.2275 57.5248 80.1323 56.3261C81.3812 55.8039 82.5826 54.8426 83.4627 53.6558C85.794 55.7327 87.376 58.0944 87.6615 60.6935Z" fill="#FF7F7F"/>
<path d="M68.6542 50.5342L67.215 62.7584C60.6493 59.3403 56.9859 55.1865 56.8431 52.7892C56.6409 49.4424 58.8295 47.8639 60.6374 47.1162C60.911 47.5079 61.244 47.9114 61.6485 48.2793C63.3018 49.8221 65.6688 50.5698 68.6542 50.5342Z" fill="#FF7F7F"/>
<path d="M80.9887 37.2422C78.0389 37.2897 75.3627 37.8119 73.1146 38.4765C71.0569 39.0936 69.3679 39.8294 68.1309 40.4466C66.7036 41.1705 65.9066 41.7165 65.8828 41.7283C65.8115 41.7877 65.7163 41.8114 65.6331 41.8114C65.5855 41.8114 65.5498 41.8114 65.5141 41.7995C65.3833 41.7639 65.2762 41.669 65.2168 41.5503L65.1811 41.4791C62.5167 40.3279 60.2925 41.1349 60.2925 43.8408V43.8527C60.3044 43.9121 60.3163 43.9833 60.3282 44.0545C60.3757 44.3037 60.4471 44.6004 60.5542 44.9208C60.6612 45.265 60.8158 45.6448 61.0418 46.0364C61.1489 46.2382 61.2678 46.44 61.4106 46.6536C61.4106 46.6536 61.4224 46.6536 61.4224 46.6655C61.47 46.7129 61.5176 46.7485 61.5652 46.796C61.5533 46.8079 61.5533 46.8079 61.5414 46.8079C61.7317 47.0927 61.9815 47.3775 62.2669 47.6386C63.5991 48.8848 65.4784 49.5494 67.8692 49.6206C67.8811 49.6325 67.8811 49.6325 67.893 49.6206C68.2379 49.6562 68.5948 49.6562 68.9635 49.6325H69.13C69.2727 49.6206 69.3917 49.68 69.4868 49.7749C69.5701 49.8698 69.6177 50.0004 69.5939 50.1309L68.0595 63.1858C70.3908 64.3252 73.067 65.3696 76.0406 66.2241C76.5521 66.0579 78.5503 65.3814 80.9887 64.3014C79.8468 62.0465 79.3949 58.0826 79.264 56.6228C78.5504 56.8245 77.8486 56.8958 77.2182 56.8958C75.5054 56.8958 74.2327 56.3854 74.1494 56.3498C73.9234 56.2549 73.8164 55.9938 73.9115 55.7683C73.9948 55.5428 74.2565 55.436 74.4944 55.5309C74.5182 55.5309 76.9565 56.5041 79.4662 55.6259C79.4781 55.6259 79.5019 55.614 79.5138 55.614C80.7389 55.1867 81.9284 54.261 82.7966 53.0861C82.8323 53.0386 82.8799 52.9793 82.9156 52.9199C84.7711 47.5793 81.4883 38.5595 80.9887 37.2422ZM66.5608 44.7666C66.5013 44.8259 66.43 44.8496 66.3586 44.8496C66.2754 44.8496 66.204 44.8259 66.1445 44.7666C64.967 43.6154 62.9568 43.9714 62.933 43.9714C62.7784 44.007 62.6238 43.9002 62.5881 43.734C62.5643 43.5797 62.6714 43.4255 62.826 43.3899C62.9211 43.378 65.1692 42.9745 66.5608 44.3512C66.6798 44.458 66.6798 44.6479 66.5608 44.7666ZM77.575 46.7129C77.92 46.6655 78.9786 46.4044 79.1927 45.894C79.2997 45.6448 78.9904 45.0989 78.705 44.5648C78.3363 43.8883 77.9199 43.1288 77.8962 42.3573C77.8724 40.6958 80.5843 40.4228 80.7032 40.411C80.8579 40.3991 81.0125 40.5178 81.0244 40.6721C81.0482 40.8382 80.9292 40.9806 80.7627 41.0044C80.7389 41.0044 78.4671 41.2536 78.4909 42.3455C78.5028 42.9745 78.8834 43.6628 79.2283 44.28C79.6208 44.9921 79.9658 45.6092 79.7398 46.1314C79.3592 47.0334 77.8367 47.2707 77.6583 47.2945C77.6464 47.3063 77.6345 47.3063 77.6226 47.3063C77.468 47.3063 77.349 47.1995 77.3252 47.0452C77.3014 46.8909 77.4085 46.7367 77.575 46.7129ZM72.8886 43.734C72.841 43.8171 72.7459 43.8646 72.6507 43.8646C72.5913 43.8646 72.5318 43.8408 72.4842 43.8052C72.3415 43.7103 72.3177 43.5323 72.4129 43.3899C73.7093 41.5859 75.9217 41.7758 76.0168 41.7877C76.1834 41.7995 76.3023 41.942 76.2904 42.1081C76.2666 42.2743 76.1358 42.3811 75.9574 42.3811C75.9455 42.3692 73.9948 42.2149 72.8886 43.734ZM74.5657 44.636C74.5182 44.731 74.423 44.7784 74.316 44.7784C74.2684 44.7784 74.2089 44.7666 74.1613 44.731C74.0186 44.636 73.9829 44.458 74.0662 44.3156C74.2327 44.0663 74.4468 43.8527 74.7085 43.6984C75.3746 43.283 76.112 43.3661 76.1477 43.3661C76.3142 43.378 76.4213 43.5323 76.4094 43.6866C76.3856 43.8527 76.2428 43.9714 76.0882 43.9595C76.0763 43.9477 75.5054 43.9002 75.0177 44.2088C74.8393 44.3156 74.6847 44.458 74.5657 44.636ZM79.8112 49.5019C79.7755 49.5257 79.2045 49.8698 78.2411 49.8698C78.134 49.8698 78.0151 49.8698 77.8843 49.858C77.8843 49.858 77.8843 49.858 77.8724 49.8461C77.1468 49.7868 76.2428 49.5257 75.1842 48.8254C75.0653 48.7542 75.0296 48.5762 75.0891 48.4575C75.0891 48.4457 75.0891 48.4338 75.101 48.4219C75.1961 48.2795 75.3746 48.2439 75.5173 48.3389C77.92 49.9292 79.4424 49.0391 79.5019 48.9916C79.6446 48.9085 79.8231 48.956 79.9063 49.0984C80.0015 49.229 79.9539 49.4189 79.8112 49.5019ZM80.8935 42.571C80.3583 42.5116 79.8825 42.9982 79.8706 42.9982C79.8112 43.0576 79.7398 43.0932 79.6565 43.0932C79.5852 43.0932 79.5138 43.0694 79.4543 43.0101C79.3354 42.8914 79.3354 42.7134 79.4424 42.5947C79.4662 42.5591 80.1442 41.8707 80.9649 41.9776C81.1314 42.0013 81.2385 42.1437 81.2266 42.3099C81.2028 42.476 81.0601 42.5947 80.8935 42.571Z" fill="white"/>
<path d="M56.6528 270.13L53.2629 281.072L1.16553 279.577C3.15189 274.545 7.16029 271.958 11.0973 270.652L14.2256 277.441C14.2969 277.607 14.4634 277.702 14.63 277.702C14.6894 277.702 14.7608 277.69 14.8203 277.654C15.0463 277.559 15.1414 277.286 15.0344 277.073L11.9656 270.379C12.9529 270.082 13.9282 269.881 14.856 269.726L17.9723 276.515C18.0555 276.681 18.2102 276.776 18.3767 276.776C18.4481 276.776 18.5075 276.764 18.567 276.729C18.793 276.634 18.8881 276.361 18.793 276.147L15.7718 269.584C17.5441 269.359 19.0904 269.323 20.1371 269.347C20.2203 269.442 20.3393 269.501 20.4701 269.501L56.6528 270.13Z" fill="white"/>
<path d="M52.9895 281.95L52.2163 284.443H0C0.154627 282.983 0.440092 281.654 0.844501 280.455L52.9895 281.95Z" fill="white"/>
<path d="M109.69 272.029V279.577L63.9087 281.119L66.6801 270.308L101.792 270.925C101.899 270.925 101.994 270.889 102.078 270.806C102.399 270.818 102.72 270.818 103.029 270.818C105.765 270.83 107.954 271.293 109.69 272.029Z" fill="white"/>
<path d="M109.69 280.467V284.443H63.064L63.6825 282.022L109.69 280.467Z" fill="white"/>
<path d="M116.386 284.217C116.374 284.36 116.363 284.443 116.363 284.443H116.113L116.386 284.217Z" fill="white"/>
<path d="M81.3813 36.5775L77.3372 29.5516C77.2301 29.3617 77.016 29.2787 76.8138 29.3499L75.8147 29.6703C74.209 27.451 71.9252 26.2286 69.3323 26.1811C67.0367 26.1573 64.6816 27.1543 63.5754 28.6971C62.0172 30.8571 62.7428 32.8272 63.2423 33.7292L62.3146 34.0259C62.1956 34.0615 62.1005 34.1446 62.0529 34.2633C61.9934 34.3819 61.9934 34.5125 62.0529 34.6312L65.1811 41.4791L65.2168 41.5503C65.2763 41.6689 65.3833 41.7639 65.5142 41.7995C65.5499 41.8114 65.5855 41.8114 65.6331 41.8114C65.7164 41.8114 65.8115 41.7876 65.8829 41.7283C65.9067 41.7164 66.7036 41.1705 68.1309 40.4465C69.3679 39.8294 71.057 39.0936 73.1147 38.4764C75.3627 37.8118 78.0389 37.2896 80.9888 37.2421H81.0007C81.1553 37.2421 81.298 37.1591 81.3813 37.0167C81.4526 36.8861 81.4526 36.7081 81.3813 36.5775ZM64.289 29.2193C65.2406 27.902 67.227 27.0356 69.3204 27.0712C71.5208 27.1068 73.4953 28.1274 74.9226 29.9551L74.7799 30.0145C74.7561 30.0145 74.7323 30.0145 74.7085 30.0263L72.5081 30.7503C72.4843 30.7503 72.4724 30.7503 72.4486 30.7622L72.3534 30.7859C72.3297 30.7859 72.3178 30.7978 72.294 30.8096L69.8556 31.5929C69.8437 31.6048 69.8437 31.6048 69.8318 31.6048L69.7248 31.6404C69.7129 31.6404 69.701 31.6523 69.6891 31.6523L67.5719 32.3406C67.56 32.3406 67.5362 32.3406 67.5243 32.3525L67.3816 32.3881C67.3697 32.3881 67.3697 32.4 67.3578 32.4L64.8838 33.207C64.8719 33.207 64.8481 33.207 64.8362 33.2189L64.6935 33.2545C64.6816 33.2545 64.6816 33.2663 64.6697 33.2663L64.1106 33.4444C63.73 32.8391 62.8974 31.1419 64.289 29.2193ZM65.8234 40.7076L63.0639 34.7142L64.0274 34.4057C64.0631 34.4057 64.0868 34.3938 64.1225 34.3701L64.6578 34.2039L67.3459 39.8413C66.6679 40.1973 66.1565 40.494 65.8234 40.7076ZM68.1428 39.4377L65.5142 33.9309L67.3459 33.3257L69.9389 38.6426C69.2728 38.9037 68.6781 39.1766 68.1428 39.4377ZM70.7715 38.3103L68.2023 33.0527L69.6772 32.578L72.3653 37.7643C71.7944 37.9424 71.2711 38.1322 70.7715 38.3103ZM73.2455 37.5032L70.5336 32.305L72.3059 31.7353L75.327 36.9929C74.6015 37.1353 73.9116 37.3134 73.2455 37.5032ZM76.2429 36.8149L73.1742 31.4505L74.6491 30.9758L77.8249 36.5657C77.2777 36.6369 76.7663 36.7199 76.2429 36.8149ZM78.8002 36.4707L75.5173 30.7028L75.7314 30.6316C75.7552 30.6197 75.779 30.6197 75.8028 30.6079L76.7425 30.2993L80.2275 36.3758C79.7398 36.3995 79.2641 36.4232 78.8002 36.4707Z" fill="#FF7F7F"/>
<path d="M128.126 61.0968C126.913 63.0075 125.058 63.3755 123.321 63.1618C123.166 63.15 123.024 63.1262 122.869 63.1025C122.726 63.0787 122.572 63.0431 122.429 63.0075C120.562 62.5803 119.027 61.6308 118.896 61.5478C118.694 61.4172 118.409 61.4766 118.278 61.6902C118.147 61.8919 118.218 62.1649 118.421 62.2955C118.456 62.3192 119.991 63.2686 121.953 63.7671C122.072 63.8027 122.203 63.8264 122.334 63.8502L122.251 78.5191V79.3855C118.23 78.2343 115.613 75.4809 114.472 74.0449C114.376 73.9262 114.281 73.8075 114.21 73.7126C114.162 73.6414 114.115 73.5701 114.067 73.5108C113.829 71.4101 112.664 59.8269 116.862 56.7768C118.266 55.7561 119.907 55.3645 121.513 55.3882C121.525 55.4001 121.549 55.412 121.561 55.412C121.81 55.4476 122.132 55.5069 122.5 55.59C122.643 55.6256 122.786 55.6612 122.94 55.6968C123.083 55.7324 123.226 55.768 123.381 55.8155C125.307 56.3377 127.793 57.3109 128.471 58.7825C128.781 59.4827 128.673 60.2423 128.126 61.0968Z" fill="white"/>
<path d="M122.25 79.3855V79.6228C122.25 79.6228 118.087 78.6852 114.114 73.8431C114.114 73.8431 114.103 73.7244 114.067 73.5107C114.114 73.5701 114.162 73.6413 114.21 73.7125C114.281 73.8074 114.376 73.9261 114.471 74.0448C115.613 75.4808 118.23 78.2342 122.25 79.3855Z" fill="white"/>
<path d="M150 288.893L131.005 272.183L116.387 284.217L116.113 284.443L110.582 289V280.028C110.582 280.016 110.582 280.016 110.582 280.004V272.515L110.63 272.468L126.093 258.25C126.271 258.084 126.283 257.799 126.116 257.621C125.95 257.443 125.676 257.431 125.486 257.597L110.582 271.293V260.469L125.438 245.99C125.617 245.812 125.617 245.527 125.45 245.361C125.272 245.183 124.998 245.171 124.82 245.349L110.582 259.235V249.598L121.739 236.721L122.869 112.794V112.783L123.178 79.0415L123.309 64.0165C123.607 64.0521 123.916 64.0759 124.225 64.0759C125.938 64.0759 127.674 63.4824 128.876 61.5836C129.589 60.4561 129.72 59.3998 129.28 58.4148C128.4 56.4565 125.343 55.3884 123.392 54.8899L123.44 49.3119V49.3001L122.56 49.039L109.476 44.992L132.73 0L147.705 56.8007L134.335 52.6706L133.895 52.5401V52.5282L133.443 52.3976L133.384 63.1976C130.172 62.984 127.556 64.242 127.127 66.3664C126.83 67.8855 127.734 69.4165 129.375 70.544C128.507 71.078 127.912 71.8376 127.734 72.7514C127.46 74.1756 128.234 75.6116 129.685 76.7272C128.769 77.1782 128.126 77.8547 127.889 78.7211C127.603 79.8367 128.043 81.0235 129.019 82.0441C128.245 82.3765 127.686 82.8987 127.46 83.5989C126.866 85.4266 128.745 87.6222 131.742 88.6072C132.23 88.7734 132.73 88.892 133.229 88.9514L132.361 234.561V234.787L147.003 246.465L147.669 255.924L132.527 243.83C132.337 243.676 132.052 243.711 131.897 243.901C131.742 244.091 131.778 244.376 131.968 244.53L147.752 257.122L148.728 270.913L132.563 255.093C132.385 254.915 132.099 254.927 131.933 255.093C131.754 255.271 131.754 255.556 131.933 255.734L148.823 272.254L150 288.893Z" fill="#FF7F7F"/>
<path d="M137.38 86.3998C137.38 86.5422 137.356 86.6847 137.309 86.8271C137.107 87.4205 136.488 87.8596 135.537 88.0613C135.097 88.1563 134.621 88.18 134.121 88.1563C133.978 88.1563 133.836 88.1444 133.681 88.1207C133.538 88.1088 133.384 88.097 133.229 88.0732C132.837 88.002 132.42 87.8952 132.016 87.7646C129.578 86.9576 127.877 85.1774 128.305 83.8719C128.483 83.326 129.03 82.9343 129.768 82.7207C130.684 83.4447 131.873 84.0618 133.253 84.4653C133.348 84.4891 133.443 84.5247 133.55 84.5484C133.598 84.5603 133.657 84.5721 133.705 84.584C133.848 84.6196 134.002 84.6552 134.145 84.6908C134.894 84.8451 135.644 84.9163 136.357 84.9163C136.476 84.9163 136.607 84.9163 136.726 84.9044C137.154 85.4148 137.38 85.9251 137.38 86.3998Z" fill="white"/>
<path d="M140.544 81.5814C140.544 81.7357 140.52 81.89 140.484 82.0324C140.27 82.8395 139.485 83.4566 138.284 83.7889C137.903 83.8957 137.511 83.9669 137.094 83.9907C136.892 84.0144 136.69 84.0263 136.488 84.0263C136.238 84.0381 135.988 84.0263 135.727 84.0025C135.203 83.9669 134.68 83.8957 134.145 83.7652C134.026 83.7414 133.895 83.7177 133.776 83.6821C133.752 83.6702 133.728 83.6702 133.705 83.6584C133.55 83.6228 133.395 83.5753 133.253 83.5278C132.444 83.2786 131.718 82.9344 131.088 82.5309H131.076C130.862 82.4122 130.672 82.2698 130.481 82.1274C130.315 82.0087 130.16 81.8781 130.017 81.7476C129.03 80.8694 128.519 79.8487 128.757 78.9467C128.959 78.2109 129.625 77.6412 130.588 77.3208C131.373 77.7599 132.289 78.1278 133.288 78.3533C133.419 78.3889 133.562 78.4245 133.693 78.4483C133.705 78.4483 133.728 78.4601 133.74 78.4601C133.883 78.4839 134.038 78.5076 134.18 78.5313C134.727 78.6144 135.263 78.65 135.798 78.65C136.595 78.65 137.368 78.5551 138.07 78.3771C138.581 78.6856 139.045 79.0298 139.438 79.4096C140.151 80.1217 140.544 80.8812 140.544 81.5814Z" fill="white"/>
<path d="M140.544 74.8995C140.544 75.0301 140.532 75.1606 140.508 75.2911C140.33 76.1694 139.568 76.9052 138.367 77.3443C138.308 77.3681 138.248 77.3918 138.177 77.4037C137.975 77.4867 137.76 77.5461 137.535 77.5817H137.523C137.273 77.6529 137.023 77.6885 136.749 77.7122H136.738C135.929 77.8072 135.072 77.7716 134.18 77.6173C134.073 77.6054 133.978 77.5936 133.871 77.5698C133.823 77.558 133.788 77.558 133.74 77.5342C133.586 77.5105 133.443 77.4749 133.288 77.4274C132.848 77.3206 132.432 77.1782 132.027 77.0002H132.016C131.754 76.9052 131.528 76.7865 131.29 76.656H131.278C131.088 76.5492 130.897 76.4424 130.719 76.3237C129.244 75.3861 128.376 74.1043 128.614 72.9294C128.768 72.158 129.375 71.5171 130.267 71.0898C131.088 71.5171 132.039 71.8613 133.086 72.063C133.169 72.0749 133.241 72.0986 133.324 72.1105C133.479 72.1342 133.621 72.158 133.776 72.1698C133.919 72.1936 134.073 72.2054 134.216 72.2173C134.549 72.2529 134.87 72.2648 135.191 72.2648C136.226 72.2648 137.213 72.1105 138.07 71.7901C138.117 71.7782 138.153 71.7545 138.189 71.7426C139.628 72.5971 140.544 73.772 140.544 74.8995Z" fill="white"/>
<path d="M139.938 68.5145C139.938 68.645 139.926 68.7756 139.902 68.9061C139.747 69.6538 139.164 70.3066 138.249 70.7457C138.094 70.8288 137.939 70.9 137.761 70.9593C137.737 70.9712 137.725 70.9712 137.701 70.9831C137.499 71.0543 137.273 71.1255 137.047 71.173C136.179 71.3866 135.215 71.4341 134.216 71.3391C134.074 71.3154 133.919 71.2916 133.776 71.2679C133.634 71.256 133.479 71.2323 133.336 71.1967C133.312 71.1967 133.289 71.1848 133.265 71.1848C132.646 71.0661 132.052 70.8881 131.504 70.6626C131.278 70.5677 131.064 70.4727 130.85 70.3659C130.66 70.271 130.493 70.176 130.315 70.0692C128.721 69.1198 127.758 67.7787 128.007 66.5444C128.305 65.0371 130.315 64.064 132.753 64.064C132.956 64.064 133.158 64.0758 133.372 64.0877C133.526 64.0996 133.669 64.1114 133.824 64.1233C133.967 64.1352 134.109 64.1589 134.264 64.1826C134.383 64.2064 134.514 64.2301 134.645 64.2539C137.654 64.8473 139.938 66.7343 139.938 68.5145Z" fill="white"/>
<path d="M94.3937 122.135C92.4074 123.725 77.4799 134.822 58.437 123.796L62.9926 104.546L64.4794 98.2915L86.7575 99.0985L94.3937 122.135Z" fill="#FF7F7F"/>
<path d="M75.0417 67.2686C73.3527 69.4048 70.1293 72.9652 68.3808 72.7754C68.1311 72.7516 67.7623 72.6329 67.465 71.9565C67.2033 71.3749 67.2271 70.8527 67.5126 70.3661C68.5236 68.6215 72.6271 67.6483 75.0417 67.2686Z" fill="#FF7F7F"/>
<path d="M83.9862 70.3305C83.4034 70.7222 80.7866 69.7965 77.3491 67.1499C79.7042 67.2567 83.3558 67.8026 83.9505 69.5235C84.0932 69.9389 84.1051 70.2475 83.9862 70.3305Z" fill="#FF7F7F"/>
</g>
<g clip-path="url(#clip1_292_561)">
<path d="M205.5 183C238.913 183 266 155.913 266 122.5C266 89.0868 238.913 62 205.5 62C172.087 62 145 89.0868 145 122.5C145 155.913 172.087 183 205.5 183Z" fill="white"/>
<path d="M205.5 164.449C228.668 164.449 247.449 145.668 247.449 122.5C247.449 99.3324 228.668 80.5513 205.5 80.5513C182.332 80.5513 163.551 99.3324 163.551 122.5C163.551 145.668 182.332 164.449 205.5 164.449Z" fill="#4034AC"/>
<path d="M205.5 144.935C217.891 144.935 227.935 134.891 227.935 122.5C227.935 110.11 217.891 100.065 205.5 100.065C193.11 100.065 183.065 110.11 183.065 122.5C183.065 134.891 193.11 144.935 205.5 144.935Z" fill="white"/>
<path d="M205.5 129.643C209.445 129.643 212.643 126.445 212.643 122.5C212.643 118.555 209.445 115.356 205.5 115.356C201.555 115.356 198.356 118.555 198.356 122.5C198.356 126.445 201.555 129.643 205.5 129.643Z" fill="#FF7F7F"/>
</g>
<defs>
<clipPath id="clip0_292_561">
<rect width="150" height="289" fill="white"/>
</clipPath>
<clipPath id="clip1_292_561">
<rect width="121" height="121" fill="white" transform="translate(145 62)"/>
</clipPath>
</defs>
</svg>